<svg id="dds__icon--processor" viewBox="0 0 32 32" xmlns="http://www.w3.org/2000/svg">
  <title>dds__icon--processor</title>
  <path d="M19.64 12.18h-7.5v7.52h7.5zM17.5 17.58h-3.22v-3.26h3.22zM32 11.28v-2.14h-4.58v-4.74h-4.64v-4.4h-2.12v4.4h-3.78v-4.4h-2.14v4.4h-3.78v-4.4h-2.14v4.4h-4.46v4.74h-4.36v2.14h4.36v3.78h-4.36v2.14h4.36v3.8h-4.36v2.12h4.36v4.38h4.46v4.5h2.14v-4.5h3.78v4.5h2.14v-4.5h3.78v4.5h2.12v-4.5h4.64v-4.38h4.58v-2.12h-4.58v-3.8h4.58v-2.14h-4.58v-3.78zM25.28 25.28h-18.78v-18.74h18.78z" fill="#FFFFFF"/>
</svg>